<svg width="144" height="51" viewBox="0 0 144 51" fill="none" xmlns="http://www.w3.org/2000/svg">
<path d="M35.8014 1.57338C35.8301 1.62369 35.8098 1.68717 35.8145 1.74106C34.9246 1.77819 33.9176 1.82371 33.0563 2.05847C32.0349 2.33754 31.1079 3.05858 30.2789 3.70057C30.2287 3.7389 30.1702 3.70057 30.2036 3.83711C30.7997 3.86945 31.434 3.79639 32.0265 3.83472C32.2846 3.85148 32.5438 3.99641 32.7958 3.95449C33.1363 3.8982 34.0525 3.22746 34.4491 3.03582C37.6637 1.48355 42.2354 2.86335 44.7691 5.18337C44.9124 5.31393 45.7486 6.13438 45.6041 6.29128C44.0882 5.86489 42.6164 5.30075 41.085 4.92586C41.0504 4.91747 40.8783 4.7953 40.8903 4.94382C40.8963 5.01569 41.5652 5.3798 41.6835 5.46364C42.5197 6.05772 43.154 6.73924 43.8182 7.51418C44.3832 7.64952 44.8945 7.6076 45.4858 7.75851C47.5429 8.28073 49.3168 9.92403 50.3513 11.741C50.5484 12.0871 50.9952 12.9196 51.0943 13.2717C51.129 13.3951 51.031 13.3687 50.9582 13.3484C49.0373 12.5243 47.3661 11.6895 45.9601 10.0977C45.6817 9.7815 45.4488 9.38864 45.1848 9.07962C45.1501 9.0389 44.6878 8.55142 44.7691 8.83768C45.628 10.1504 46.365 11.5577 46.8715 13.0465C49.6513 13.8095 51.6689 15.6061 52.8372 18.2316C53.0941 18.8101 53.5755 19.9922 53.6495 20.5911C53.6603 20.6809 53.7069 20.7504 53.5731 20.7265C52.3009 19.7766 51.0143 19.04 49.9296 17.8531C48.9895 16.823 48.483 15.7283 47.6814 14.6599C47.5954 14.5449 47.4927 14.3269 47.335 14.3197C47.7818 15.7343 48.1175 17.1943 48.6801 18.5693C49.4638 19.2197 50.4672 19.6593 51.2425 20.3096C53.3736 22.1003 54.5873 24.8431 55.0341 27.5536C54.9242 27.568 54.8477 27.4913 54.7665 27.4326C53.9709 26.8565 52.5051 25.3509 51.8087 24.5904C51.2341 23.9628 50.6022 23.1878 50.1889 22.4428C49.8448 21.8236 49.5486 20.8103 49.1866 20.2893C49.1508 20.2378 48.9823 20.1144 49.005 20.2749C49.134 21.1924 49.5306 22.3626 49.7516 23.3004C49.8974 23.9196 50.0013 24.5508 50.1411 25.1701C50.5902 25.5282 51.0943 25.8133 51.5399 26.1774C54.0545 28.2279 55.2897 31.6235 55.5107 34.7987C55.1523 34.4394 54.8668 33.9866 54.5275 33.5998C53.0678 31.9373 51.737 30.5288 50.9725 28.3633C50.8268 27.95 50.7563 27.3392 50.5699 26.9703C50.5269 26.8852 50.4887 26.8122 50.3776 26.8337L51.0012 31.9277C51.6498 32.6679 52.4741 33.2417 53.1215 33.9926C54.8453 35.9893 55.5919 38.6578 55.6899 41.2665L55.3327 40.9359C54.1979 39.4591 52.8814 38.0937 52.1384 36.3546C51.7573 35.4611 51.5566 34.4981 51.1827 33.6022L51.1529 34.2298C51.3691 35.5054 51.1887 36.9199 51.7776 38.0937C52.1539 38.8435 52.676 39.5358 53.0128 40.3275C53.8849 42.3768 53.7379 44.6956 53.0296 46.7737C53.0176 46.8085 52.9519 47.0612 52.8826 46.9857C51.7406 45.146 51.049 42.8799 51.0298 40.7C51.0239 40.0245 51.1541 39.3477 51.086 38.6674L50.6452 36.9558L50.4278 38.8327C50.0993 40.8916 49.3491 42.8403 48.6753 44.7987C47.961 43.2104 47.777 41.2342 48.1975 39.5286C48.618 37.823 49.5796 36.7594 50.4947 35.4251L49.9583 30.0664C49.8759 30.0497 49.815 30.0868 49.7899 30.167C49.6489 30.6318 49.7158 31.5361 49.6597 32.0727C49.373 34.7652 48.3982 35.6431 47.2024 37.8122C47.022 38.138 46.7843 38.8363 46.6063 39.0711C46.555 39.1393 46.543 39.1932 46.4367 39.1705C46.5347 38.7069 46.3471 38.1823 46.3172 37.7032C46.193 35.6503 46.6302 33.5399 47.7006 31.7864C48.1509 31.0486 49.5689 29.4328 49.7051 28.707C49.8006 28.1956 49.6609 27.2937 49.5916 26.7535C49.4494 25.63 49.183 24.5173 48.9919 23.4022L48.9131 23.3028C48.8557 23.3447 48.8354 23.3806 48.8235 23.4513C48.7422 23.922 48.8569 24.667 48.8235 25.188C48.7148 26.8936 48.182 28.4974 47.2968 29.9443C46.7007 30.9204 45.9015 31.7744 45.4201 32.8236L45.3018 32.7937C45.3532 32.4691 45.2541 32.1433 45.2397 31.8379C45.1716 30.318 45.4619 28.2842 45.9314 26.8373C46.512 25.0443 47.5381 23.4573 48.6311 21.9446C48.2871 20.336 47.9514 18.7083 47.3924 17.1632L47.2729 17.2255C47.2944 17.3033 47.3302 17.3836 47.3326 17.465C47.3613 19.0245 47.4975 20.0413 47.0173 21.5792C46.4092 23.5292 45.192 24.976 44.4668 26.8361C44.3271 26.7631 44.3032 26.4229 44.2889 26.266C43.9687 22.7746 44.4848 20.1467 46.2695 17.1752C46.5406 16.7236 47.022 16.3248 46.9611 15.7427C46.8715 14.8875 45.8036 12.2824 45.3532 11.4847L45.0653 11.1445C45.4177 12.6477 45.579 14.067 45.2266 15.5881C44.9244 16.8925 44.3749 17.9046 43.8206 19.0879C43.5864 19.5886 43.4204 20.1755 43.0955 20.6067C43.0357 19.9359 42.8578 19.27 42.7968 18.5993C42.6535 17.0206 42.7873 14.9509 43.1719 13.4071C43.4646 12.2321 44.0523 11.2164 44.5756 10.1396C44.615 9.94559 44.0284 9.09998 43.8839 8.88439C43.2914 8.00525 42.4612 7.00274 41.6046 6.37991C41.5234 6.32003 41.4852 6.26613 41.3633 6.29248C41.4924 6.61587 41.7014 6.90812 41.8268 7.2351C42.6798 9.47009 41.8089 11.4607 41.1854 13.5712C41.1603 13.6574 41.2212 13.6766 41.0647 13.6598C41.0635 13.3112 40.8497 13.019 40.7386 12.6992C40.2679 11.3374 39.9633 9.74317 39.9872 8.2975C40.0015 7.45788 40.2142 6.544 40.2285 5.72355C40.2345 5.41214 39.6503 5.15103 39.3851 5.01329C38.3709 4.48748 36.9804 4.09343 35.8396 4.01917C35.7226 4.01198 35.1539 3.98084 35.1551 4.1078C36.462 4.85998 37.5467 6.16911 38.1798 7.54052C38.9778 9.26767 39.1343 11.2008 39.286 13.0777C41.0826 16.0613 41.9535 19.4772 41.2522 22.9566C41.6381 23.7963 42.2378 24.5101 42.6463 25.3366C43.5542 27.1679 44.1407 30.1647 43.7907 32.1769C43.7764 32.2607 43.7871 32.4967 43.6605 32.4643C42.7753 31.2043 41.9774 29.8173 41.5401 28.3321L41.3765 28.4291C41.3598 29.5334 41.306 30.6533 41.8507 31.6439C42.4647 32.7602 43.3392 33.7124 43.8373 34.9209C44.8061 37.2685 44.4716 39.828 44.4573 42.3073L44.3761 42.4044C43.8636 41.978 43.3917 41.4941 43.062 40.9096C41.8424 38.7465 42.2187 36.5187 41.8304 34.1795C41.7432 33.6561 41.5664 33.165 41.4804 32.644C41.3239 32.626 41.386 32.6464 41.3598 32.7314C41.2463 33.0979 41.3299 33.4944 41.3012 33.8705C41.1423 35.9222 40.6299 37.8002 39.7495 39.6508C39.6599 39.6675 39.6145 39.6316 39.5834 39.549C39.5237 39.392 39.4281 38.6435 39.3995 38.4159C39.0948 36.0515 39.1199 33.6812 40.1174 31.4846C40.2488 31.1935 40.5976 30.7444 40.643 30.4545C40.7816 29.5706 40.6609 28.0794 40.7075 27.1056C40.741 26.399 40.8915 25.6923 40.8258 24.9796C40.7362 24.9952 40.7099 25.0886 40.6777 25.1605C38.2121 30.748 36.6113 40.8102 41.8997 45.2526C44.664 47.5738 48.655 46.9462 51.565 48.9704C51.7048 49.0674 52.4609 49.6567 52.2865 49.8328C51.4778 49.8016 50.6739 49.6459 49.8687 49.5944C47.9658 49.4734 45.8669 49.3836 43.9615 49.3501C43.326 49.3393 42.4265 49.6711 41.7432 49.7657C38.9336 50.1538 33.153 49.8651 32.1783 46.4994C32.1556 46.4204 32.2177 46.3342 32.0815 46.3593C30.1988 49.5944 26.0059 50.1502 22.5906 50.1933C22.4926 50.1945 22.3923 50.2532 22.292 50.2532L20.5909 50.1334C20.5347 50.0819 20.7999 49.7693 20.8597 49.7142C21.9264 48.732 24.1065 48.0326 25.4289 47.351C30.126 44.9304 31.0494 41.033 31.5822 36.0971C31.5941 35.9833 31.7637 35.5281 31.575 35.6096C29.862 36.9834 27.5242 37.4134 25.4134 36.8217C24.0145 36.4288 22.8104 35.582 21.6959 34.6825C21.7986 35.1832 21.9133 35.6994 21.9634 36.2108C22.2955 39.5849 21.6385 44.3926 18.9471 46.7186C15.4327 49.7561 10.6628 49.574 6.2966 49.7178C5.39231 49.7477 4.48324 49.7561 3.57895 49.7753C3.83697 48.9584 4.84281 48.3943 5.58703 48.0469C7.75876 47.0336 10.1563 46.9594 12.2528 45.691C18.2555 42.0594 16.7348 33.2704 14.9035 27.6638C14.3672 26.0229 13.5895 24.4299 13.3685 22.7063C13.1451 22.6943 13.1379 23.3208 13.1272 23.5124C13.0543 24.7928 13.3016 25.6623 13.4796 26.8769C13.5716 27.5009 13.5644 28.3177 13.6803 28.8915C13.7627 29.3035 14.3086 30.0353 14.5141 30.4497C15.5438 32.5194 15.8902 34.8562 15.5701 37.1619C15.5593 37.2385 15.4017 38.2698 15.2201 38.0973C15.0194 37.502 14.7207 36.9295 14.5009 36.333C14.0422 35.0886 13.734 33.777 13.4437 32.4823C13.4067 32.317 13.4987 32.0403 13.2502 32.0487C12.9552 35.2682 13.7496 38.7033 12.2862 41.7109C12.0951 42.1049 11.7271 42.7637 11.45 43.0871C11.3974 43.1494 11.3927 43.2128 11.2816 43.1865C11.4165 41.6606 10.83 40.2125 10.6855 38.7249C10.5027 36.8409 10.7954 34.94 11.6889 33.2656C12.0413 32.6056 12.561 31.9888 12.7915 31.2582C13.157 30.0976 13.034 28.3764 12.8154 27.1835C12.7975 27.0841 12.8082 26.9152 12.6541 26.9583C12.6517 27.102 12.6685 27.2494 12.6398 27.3931C12.2898 29.1346 11.6674 30.815 11.0415 32.4679C10.959 32.4619 10.9471 32.3805 10.9196 32.3218C10.1539 30.6378 10.4525 26.7247 11.0725 24.9844C11.4918 23.8094 12.2862 22.8632 12.7831 21.79C13.1929 20.9037 12.8859 19.1862 12.9492 18.1238C13.0161 16.9835 13.4007 15.7618 13.8559 14.7222C14.0147 14.3605 14.4842 13.6406 14.5499 13.3232C14.6419 12.8777 14.4185 11.8799 14.4448 11.3014C14.5439 9.16706 15.3336 6.98358 16.951 5.55108C17.0968 5.42172 17.958 4.83722 17.9652 4.77374C17.9783 4.65637 17.7896 4.73182 17.7502 4.73542C16.4995 4.86357 15.0743 5.35944 14.0912 6.15594C12.7103 7.27582 13.3936 8.26636 13.4891 9.74437C13.5835 11.214 13.1535 13.0262 12.6398 14.4012C12.4917 14.7976 12.2468 15.1606 12.1751 15.5834C12.0855 15.5714 12.0795 15.4995 12.0616 15.4276C11.45 12.8789 10.615 10.7337 11.9147 8.16455C12.0807 7.83637 12.3196 7.53334 12.4737 7.19917C12.4284 7.15246 11.8275 7.64473 11.757 7.70701C11.0594 8.32026 10.3617 9.14909 9.84688 9.92283C9.70831 10.13 9.00829 11.2451 8.97723 11.3913C8.96409 11.4523 8.95573 11.4979 8.99515 11.553C9.67247 12.4632 10.3152 13.4011 10.6664 14.4934C11.2039 16.1643 11.2326 17.8938 11.0415 19.6257C11.0128 19.8892 10.8563 21.1277 10.7739 21.2738C10.7153 21.378 10.6676 21.3002 10.6353 21.2319C10.4812 20.9097 10.3605 20.5049 10.1981 20.1743C9.87077 19.5096 9.43475 18.8664 9.12297 18.1992C8.26168 16.3607 7.98573 14.5114 8.53524 12.5303C8.43131 12.5111 8.37994 12.5794 8.33096 12.6549C8.13983 12.9459 7.78982 13.8622 7.6393 14.2359C7.40039 14.8288 6.73143 16.5092 6.68723 17.059C6.63825 17.659 7.9272 19.046 8.28677 19.5778C9.66769 21.6236 10.2948 24.6059 9.70234 27.0242C9.67725 27.1284 9.67725 27.2853 9.55182 27.3212C8.60811 25.4156 7.07786 23.7903 6.64184 21.6463C6.42681 20.5899 6.44712 19.4712 6.44712 18.398C6.27749 18.3669 6.34916 18.4388 6.31333 18.5298C6.26435 18.652 6.21418 18.8077 6.17834 18.9358C5.75307 20.4318 5.49982 22.0392 5.25254 23.5747C5.86656 24.4239 6.66573 25.1294 7.24868 26.0085C8.87091 28.4519 9.23048 31.1276 9.07399 34.0286L7.83402 32.0691C5.9454 29.9646 5.50341 28.0351 5.18684 25.3222C5.18087 25.2695 5.11995 24.9078 5.01482 25.0455L4.65645 28.071L4.6684 30.2736C6.49132 32.523 7.89614 34.2897 8.22942 37.3008C8.31663 38.0817 8.39069 39.943 8.11713 40.6461C7.97498 41.0138 7.77907 40.5467 7.67753 40.3694C6.62989 38.5512 5.42098 36.2791 5.03274 34.219C4.91448 33.5914 4.89178 32.844 4.72335 32.2511C4.69468 32.1505 4.76755 32.0834 4.59672 32.1122C4.62898 33.1782 4.55372 34.2525 4.59433 35.3185C4.61106 35.7653 4.63017 36.5163 4.72215 36.9271C4.91687 37.7967 5.5273 38.7489 5.75068 39.7885C6.27271 42.2235 5.74471 44.4932 4.38887 46.5462L4.24074 46.503C4.21088 46.1617 4.11889 45.8263 4.06872 45.4886C3.86087 44.1004 3.70557 42.5265 3.76291 41.1252C3.81189 39.9214 4.06275 38.7429 4.00302 37.5284C3.97913 37.0493 3.82622 36.5546 3.88117 36.0635C3.75096 36.0288 3.73663 36.1186 3.71871 36.2264C3.6327 36.7606 3.6112 37.3307 3.50727 37.8733C3.05333 40.2305 1.83606 41.8414 0.825451 43.9267C0.792003 43.9962 0.775279 44.0704 0.776474 44.1483C0.560256 43.9447 0.512473 43.3542 0.48022 43.0392C0.145739 39.8256 1.40004 36.6432 3.8095 34.5244L3.87281 29.3945L3.79158 29.2975C3.65182 29.3981 3.71991 29.5754 3.68646 29.7299C3.03064 32.8117 2.05586 33.9651 0.367929 36.4636C0.333287 36.5151 0.213829 36.8708 0.179186 36.5738C-0.222191 33.1303 1.00344 29.8041 3.86923 27.8183C4.01377 26.1223 4.27897 24.4383 4.59672 22.7698L4.41276 22.8045C4.01019 24.0753 3.45829 25.188 2.67704 26.2624C2.13232 27.011 0.84337 28.6531 0.150517 29.1777C0.103928 29.2136 0.047783 29.2987 0 29.2065C0.0991497 28.6819 0.0561456 28.1321 0.126626 27.5967C0.543532 24.4191 2.37004 22.541 4.92165 20.8486C5.10083 20.1803 5.17729 19.4856 5.34214 18.8149C5.57508 17.8674 5.94062 16.95 6.14967 16.0026C6.02663 15.9774 6.0111 16.0637 5.95973 16.1403C5.07694 17.4506 4.7341 18.4076 3.52519 19.5658C2.7523 20.306 1.81695 21.2151 1.01778 21.9014C0.938936 21.9697 0.582953 22.3039 0.598482 22.0799C0.691659 20.7277 1.42871 18.6915 2.19802 17.5752C3.28508 15.9954 4.9539 15.0803 6.71709 14.4431C7.36455 12.6213 8.2354 10.8858 9.37502 9.32516C9.32963 9.24012 9.21973 9.31438 9.16239 9.35151C8.66544 9.68089 7.98693 10.7038 7.52582 11.1829C6.74337 11.9949 5.92867 12.5339 4.9754 13.116C4.44143 13.4418 3.16323 14.2563 2.64479 14.4311C2.59342 14.4479 2.50741 14.473 2.5098 14.4144C3.42962 10.9709 6.38261 8.55501 9.97111 8.48554C11.1454 7.17881 12.5371 6.14156 13.9431 5.10432L13.9407 4.98215C12.5741 5.17978 11.2445 5.58581 9.95678 6.07569C8.95095 6.45897 8.00843 6.99675 6.98707 7.31775C6.91659 7.25307 7.67156 6.26014 7.76473 6.15234C10.2817 3.21309 14.5236 2.30999 18.1623 3.38317C18.5601 3.50055 19.8037 4.06708 20.033 4.08265C20.2062 4.09462 20.4929 3.97605 20.6876 3.96647C21.4343 3.92934 22.1892 3.96647 22.9251 4.08504C22.9944 4.02396 22.7077 3.77363 22.6551 3.72812C21.7341 2.91605 20.0151 2.08122 18.7799 2.04649C18.4681 2.0381 16.7444 2.3028 16.6583 2.22854C16.7336 1.97103 17.0979 1.74346 17.3189 1.60452C19.6484 0.150464 23.0971 0.727775 25.2473 2.26448C25.7765 2.64296 26.4192 3.19991 26.6856 3.78561C27.5995 2.81304 28.5874 1.76023 29.85 1.24161C31.2381 0.671481 33.3704 0.575662 34.7908 1.07392C34.9258 1.12183 35.7715 1.52307 35.805 1.58176L35.8014 1.57338ZM34.442 11.4739C34.3834 10.6008 34.442 9.60663 34.442 8.7191C34.442 8.03519 33.7503 6.44699 33.3322 5.87926C33.2331 5.74391 32.7528 5.10791 32.594 5.21811C32.1783 6.16073 32.0791 7.20875 32.2487 8.22324C32.4865 9.64017 33.4493 10.6403 34.4121 11.6224C34.608 11.6296 34.4432 11.5062 34.4408 11.4727L34.442 11.4739ZM20.8704 5.27919C20.7175 5.30674 20.4153 5.8565 20.3448 6.01341C19.7176 7.41117 20.0641 8.88559 20.3711 10.3193C20.3986 10.4462 20.5539 11.2032 20.6231 11.2032C22.0124 10.1971 22.0817 8.02561 21.5907 6.52125C21.525 6.32003 21.0615 5.24565 20.8704 5.28039V5.27919ZM29.7485 12.0189C28.6889 10.9816 27.9447 9.84378 27.5349 8.4017L27.1897 6.89375C27.0798 6.96561 27.1061 7.05185 27.0977 7.15964C26.5602 13.9844 19.6615 13.0693 18.283 18.5585C17.3858 22.1314 18.5517 27.7093 20.4499 30.8426C22.7101 34.5747 26.6737 37.2948 30.82 34.3699C34.9963 31.4247 37.1393 24.3724 36.3342 19.458C35.6162 15.0791 32.4423 14.6551 29.7497 12.0201L29.7485 12.0189ZM18.3845 7.25187C18.2447 7.21234 18.2842 7.289 18.2483 7.32853C17.1206 8.59933 16.5568 11.1781 16.4158 12.8513L16.2964 15.8744C16.3967 15.896 16.4182 15.8469 16.466 15.7762C16.9498 15.0731 17.2951 14.0479 17.7812 13.322C18.05 12.7124 18.3499 12.1075 18.4765 11.4452C18.7333 10.1025 18.486 8.60292 18.3845 7.25187ZM38.4402 16.0553C38.4498 14.4239 38.6708 12.6872 38.2192 11.0978C37.8895 9.9396 37.0115 8.43644 36.0535 7.70102C35.9937 7.65551 35.9782 7.58484 35.8743 7.61239C35.9555 9.15867 36.0475 10.6055 36.5146 12.0895C36.8634 13.1987 37.6243 14.8827 38.2503 15.8576C38.2981 15.9331 38.347 16.0301 38.4402 16.0553ZM35.5756 43.4236C35.4108 43.256 35.4526 43.8644 35.4586 43.9315C35.6091 45.9964 37.8764 47.6828 39.8152 47.914C39.8474 47.7547 39.7758 47.811 39.6981 47.7655C37.9218 46.727 36.3019 45.4287 35.5768 43.4236H35.5756Z" fill="#48684B"/>
<path d="M29.1728 26.6328C29.3225 26.788 29.2355 27.0744 29.0997 27.2201C28.2701 28.1166 25.4471 27.8892 25.4274 26.4691C25.4227 26.1321 25.8903 25.1128 25.9831 24.647C26.2071 23.5302 26.2964 21.1967 25.7917 20.1822C25.4448 19.4854 24.4167 18.6887 23.7101 18.4311C23.0035 18.1736 21.429 18.0268 20.6748 18.2338C20.4833 18.2867 19.8243 18.6899 19.7674 18.6742C19.5516 18.6141 19.8382 18.1411 19.9101 18.0424C21.0936 16.4153 24.9215 16.9545 25.9286 18.6562C26.7037 19.9668 26.7745 22.3111 26.6283 23.8118C26.5633 24.4822 26.3196 25.2765 26.2883 25.9263C26.2755 26.1995 26.257 26.3897 26.4589 26.5906C26.7895 26.9192 27.5553 26.853 27.9823 26.782C28.2596 26.7363 28.9744 26.427 29.1728 26.6328Z" fill="#48684B"/>
<path d="M26.3182 29.4534C26.8294 29.3758 27.1364 29.6523 27.5811 29.6648C27.9279 29.6748 28.3364 29.4421 28.6434 29.4534C29.0579 29.4697 29.5521 29.7824 29.9364 29.8086C30.1467 29.8236 30.7811 29.6398 30.8984 29.8086C31.1147 30.1188 30.4029 30.4953 30.1878 30.5816C29.6573 30.7942 28.0693 31.1394 27.5146 31.1269C26.8584 31.1132 24.6131 30.6917 24.2554 30.1213C23.8977 29.551 25.0771 29.7886 25.3938 29.7448C25.6741 29.7061 26.033 29.4959 26.3194 29.4521L26.3182 29.4534Z" fill="#48684B"/>
<path d="M35.439 18.8314C35.3477 18.8503 35.289 18.895 35.189 18.872C34.9514 18.8151 34.5075 18.4847 34.1887 18.3954C32.6709 17.9661 30.6592 18.3398 29.4126 19.377C29.2051 19.549 28.9513 20.0649 28.6887 19.8049C28.7387 17.7278 31.183 16.9316 32.7759 17.0819C33.7511 17.174 35.1527 17.7224 35.439 18.8314Z" fill="#48684B"/>
<path d="M19.7882 21.0216C20.0281 20.931 20.157 21.1763 20.3413 21.2669C21.2775 21.7282 22.1982 21.8553 23.1982 21.6611C23.509 21.6012 24.4321 21.1763 24.6532 21.3413C24.9605 21.5706 24.4605 22.1852 24.2986 22.3648C23.0043 23.7957 20.755 23.4584 19.8189 21.6217C19.7468 21.48 19.5825 21.1063 19.7882 21.0216Z" fill="#48684B"/>
<path d="M29.9017 21.3116C30.1383 21.0715 31.0608 21.5182 31.4067 21.5821C32.1473 21.7188 32.8998 21.7082 33.6261 21.4787C33.8639 21.4028 34.6936 20.9059 34.8172 21.0183C35.0229 21.2052 34.6365 21.7765 34.5189 21.9376C33.3646 23.5088 31.3877 23.7625 30.1514 22.2005C29.9802 21.9832 29.658 21.5608 29.9017 21.3131V21.3116Z" fill="#48684B"/>
<path d="M28.4725 31.6898C29.0488 31.8805 28.3223 32.0703 28.0374 32.1386C27.481 32.2708 27.0029 32.3054 26.4497 32.1466C26.3205 32.1094 25.6039 31.8308 25.9882 31.7324C26.167 31.6862 26.824 31.8477 27.0835 31.8583C27.5351 31.877 28.043 31.8042 28.4736 31.6898H28.4725Z" fill="#48684B"/>
<path d="M72.1258 17.9419L72.3627 17.9451C72.3595 17.8388 72.3627 17.7293 72.4014 17.6277C73.7327 14.2979 75.0559 10.7269 76.5129 7.47172C76.8256 6.77181 76.932 6.33694 77.7362 6.05919C78.6194 5.75288 81.506 5.81636 82.5536 5.87984C82.7438 5.89095 83.5045 5.96714 83.6028 6.03538C83.8478 6.20521 83.843 6.71784 83.7366 6.97337C83.548 7.43046 82.6552 7.4749 82.3119 7.87009C82.0217 8.20339 81.8944 8.96996 81.8622 9.41118C81.6172 12.8203 82.0427 16.5183 81.8751 19.9576C81.9895 20.7115 81.9943 21.0479 82.6761 21.4685C83.2563 21.8256 83.9913 21.8066 83.7785 22.7271C83.685 23.135 83.3063 23.1572 82.9533 23.1842C80.9064 23.3413 78.6565 23.0604 76.587 23.181C76.3598 23.1699 75.9891 23.0398 75.9198 22.8081C75.5523 21.578 77.3574 21.9463 77.5879 20.5163C77.8184 17.3119 77.4912 14.0932 77.5944 10.8809C77.4122 10.8475 77.4654 10.8888 77.4155 10.9824C77.2898 11.2094 77.1334 11.6014 77.0174 11.8585C75.4298 15.3946 74.1082 19.0561 72.5368 22.6002C72.0017 23.4143 70.1434 23.4588 69.6599 22.5478C67.8999 18.8784 66.4735 14.8629 64.6039 11.2618C64.525 11.1094 64.4621 10.8317 64.2687 10.7999L64.2381 20.1941C64.2752 20.5321 64.4267 21.0273 64.6668 21.2797C65.081 21.713 66.2286 21.6907 66.2431 22.424C66.2543 22.9827 65.99 23.1366 65.4791 23.1826C64.3348 23.2874 62.0284 23.2842 60.8809 23.1826C60.5344 23.1525 60.2588 23.0366 60.204 22.6573C60.0605 21.6876 61.063 21.8923 61.5723 21.4749C62.7053 20.5496 61.9559 16.9579 62.2976 15.6041C62.0848 13.4345 62.5796 10.7444 62.2734 8.63826C62.0993 7.44157 61.3015 7.60504 60.5295 7.18287C60.0412 6.91464 60.2346 5.86238 60.8841 5.87826C62.5458 6.01633 64.4943 5.69891 66.1206 5.87826C66.7475 5.94809 67.3713 6.43533 67.6759 6.96384L72.1242 17.9372L72.1258 17.9419Z" fill="#48684B"/>
<path d="M69.7319 39.9502L69.9449 39.9654L72.577 32.8612C72.1252 31.9279 71.8665 30.4688 71.0465 29.7833C70.5733 29.3881 69.7532 29.2787 70.0271 28.4579C70.1214 28.1767 70.3816 28.0353 70.6707 28.0293C71.2686 28.0156 71.97 28.1129 72.5648 28.1129C73.9722 28.1129 75.6549 27.9441 77.0546 28.1083C77.3878 28.1478 77.6023 28.3332 77.6282 28.6813C77.7149 29.8882 75.7599 28.9306 75.8831 30.5706C75.9576 31.5495 77.1215 34.4541 77.511 35.5561C78.0161 36.9833 78.5486 38.409 79.104 39.8165L79.2941 39.7633C80.067 37.3253 80.9829 34.9146 81.7041 32.4599C81.873 31.8839 82.2883 30.7834 82.1453 30.2377C81.876 29.2072 79.4493 29.6632 80.6619 28.1509H85.8287C86.8557 29.3486 85.3327 29.2969 84.7622 29.8942C84.4701 30.1997 84.2921 30.7545 84.1217 31.1543C82.48 34.9937 81.6569 39.3575 80.1294 43.1999C79.8343 43.9431 79.6852 44.4858 78.789 44.5952C78.1303 44.6758 76.7777 44.7305 76.37 44.1423C75.3902 41.4246 74.5168 38.672 73.534 35.9558C73.5142 35.8996 73.5401 35.7172 73.4016 35.7886C73.3134 35.8342 72.7626 37.4074 72.6774 37.649C71.9228 39.7648 71.3142 41.9322 70.5657 44.0495C70.4135 44.3095 70.1671 44.5055 69.8704 44.5709C69.3668 44.6803 68.1999 44.7244 67.7191 44.5846C67.4848 44.5162 67.2824 44.3733 67.1288 44.1863C65.3244 40.2314 64.3445 35.7278 62.604 31.7623C62.3028 31.0768 61.8661 30.1344 61.2545 29.6921C60.7601 29.3349 60.0556 29.3425 60.2123 28.5339C60.2854 28.1584 60.7646 28.0627 61.0826 28.0353C62.6512 27.9031 64.9577 27.97 66.5613 28.0353C66.8367 28.046 67.4681 28.0642 67.6963 28.1174C68.1892 28.2329 68.2394 29.0203 67.8073 29.2863C67.1485 29.6906 66.2905 29.4884 66.4517 30.7302C66.5308 31.3473 67.0938 32.6864 67.322 33.3552C68.0781 35.5667 68.9165 37.763 69.7259 39.9548L69.7319 39.9502Z" fill="#48684B"/>
<path d="M104.536 11.578C106.753 9.40654 110.527 9.04883 112.491 11.734C113.549 10.5853 115.145 9.76898 116.769 9.75953C122.699 9.72643 120.593 16.504 120.926 20.2876C120.957 20.6295 121.062 21.0692 121.328 21.3134C121.732 21.6822 122.597 21.6664 122.629 22.3346C122.647 22.7049 122.411 23.0957 122.014 23.1571C120.084 23.0437 117.944 23.3242 116.038 23.165C115.607 23.1288 115.489 23.0106 115.442 22.5631C115.339 21.5829 116.273 21.6901 116.651 21.0771C116.771 20.8832 116.859 20.3569 116.88 20.119C117.013 18.6156 116.989 16.2094 116.89 14.6934C116.837 13.8582 116.709 12.6937 115.684 12.4825C114.49 12.2351 113.126 12.752 112.888 14.019C112.625 15.4199 112.814 17.2856 112.845 18.7196C112.859 19.3578 112.704 20.0685 112.875 20.7383C113.162 21.8508 114.377 21.5278 114.307 22.4922C114.274 22.9586 114.084 23.1256 113.624 23.1666C112.177 23.2942 109.336 23.2879 107.883 23.1666C107.759 23.1556 107.603 23.1571 107.497 23.091C107.258 22.9444 107.23 22.2463 107.335 22.0005C107.473 21.6775 108.521 21.4947 108.648 20.5964C108.515 18.5195 108.85 16.1889 108.654 14.1435C108.533 12.8765 107.912 12.3454 106.592 12.4463C105.218 12.5503 104.622 13.4391 104.533 14.6918C104.429 16.1463 104.371 19.1167 104.546 20.5176C104.58 20.784 104.706 21.1606 104.896 21.3576C105.296 21.7688 106.139 21.6822 106.154 22.4149C106.163 22.9034 105.944 23.1272 105.468 23.1698C103.645 23.3305 101.578 23.039 99.7261 23.1698C99.0554 23.2218 98.8857 22.4055 99.0974 21.9233C99.1572 21.7862 100.011 21.4568 100.213 21.1953C100.379 20.9794 100.457 20.4704 100.466 20.1978C100.554 17.8403 100.343 15.3048 100.361 12.938C100.164 12.1973 99.2331 12.1232 99.0828 11.8207C98.9325 11.5181 98.9923 10.9792 99.3091 10.7791C99.8037 10.4702 102.627 9.88243 103.283 9.85092C103.624 9.83516 104.024 9.81468 104.297 10.0416C104.348 10.0841 104.534 10.3284 104.534 10.3615V11.5828L104.536 11.578Z" fill="#48684B"/>
<path d="M133.427 38.4455L133.218 38.5778L130.979 44.4311C130.796 44.6378 129.375 44.6317 129.059 44.5998C128.406 44.5344 128.205 44.2989 127.942 43.7395C127.046 41.8411 126.357 39.6721 125.524 37.7205C125.054 36.617 124.434 34.9177 123.661 34.0346C123.248 33.5634 122.486 33.378 122.842 32.6104C122.956 32.3642 123.407 32.3064 123.658 32.2852C124.905 32.1788 127.365 32.1696 128.605 32.2852C129.124 32.3338 129.552 32.6241 129.366 33.2032C129.246 33.5786 128.747 33.5786 128.529 33.8112C128.16 34.2064 128.42 34.8402 128.56 35.2916C129.025 36.7888 129.784 38.6811 130.407 40.1327C130.496 40.3409 130.547 40.6251 130.767 40.7224L132.5 35.8327C132.483 35.6367 131.799 34.6396 131.634 34.4222C131.105 33.7246 129.663 32.7624 131.26 32.2836C132.928 32.4022 134.793 32.1316 136.435 32.2821C136.9 32.3247 137.276 32.729 137.121 33.2017C137.004 33.5604 136.139 33.5528 136.028 34.2429C135.952 34.711 136.424 35.8692 136.607 36.3662C137.096 37.7038 137.703 39.2435 138.286 40.5385C138.327 40.6282 138.251 40.6753 138.444 40.6449C138.934 38.938 139.681 37.3116 140.229 35.626C140.406 35.0834 140.79 34.2976 140.32 33.831C139.952 33.4646 139.198 33.6516 139.199 32.9311C139.199 32.5496 139.401 32.3277 139.774 32.2836C140.891 32.1529 142.204 32.425 143.339 32.2335C143.658 32.2806 143.914 32.466 143.979 32.7974C144.118 33.5148 143.528 33.4692 143.156 33.8401C142.504 34.4921 141.413 37.5001 140.994 38.5185C140.301 40.2056 139.71 42.1344 138.939 43.7593C138.756 44.1453 138.581 44.5192 138.099 44.5922C137.869 44.6272 137.201 44.6788 136.967 44.6758C135.71 44.6606 135.63 43.811 135.216 42.8488C134.591 41.3942 134.038 39.9016 133.427 38.4425V38.4455Z" fill="#48684B"/>
<path d="M116.534 31.8565C124.392 31.4248 125.661 43.2971 117.935 44.808C108.314 46.6897 106.846 32.39 116.534 31.8565ZM116.225 33.5239C113.538 33.8932 113.841 39.2678 114.425 41.1388C114.877 42.5858 115.749 43.5951 117.391 43.1999C119.41 42.7135 119.175 38.0822 118.873 36.541C118.615 35.2338 117.885 33.2943 116.225 33.5239Z" fill="#48684B"/>
<path d="M92.3455 21.9971C92.062 22.1139 91.9218 22.4305 91.6791 22.6496C89.3933 24.6949 84.8404 24.1365 84.9428 20.4111C85.0232 17.4633 87.8793 16.4228 90.2188 15.8676C90.5685 15.7848 92.0919 15.6274 92.177 15.3709C92.2463 15.1566 92.2195 13.2931 92.1927 12.9457C92.0856 11.5416 91.153 11.1471 89.8864 11.3841C88.3756 11.6682 89.2672 14.4034 87.5012 14.6875C84.946 15.0982 85.0641 12.4376 86.6411 11.1228C88.6812 9.42322 93.9965 9.0174 95.5105 11.6325C96.6085 13.5301 95.8114 18.0314 96.1454 20.3933C96.2887 21.3997 96.8811 21.2179 97.5616 21.4484C98.3005 21.7 97.5695 22.7421 97.1867 23.0522C95.7578 24.2096 92.8071 24.1528 92.344 21.9971H92.3455ZM92.1896 16.9666C90.4771 17.2766 88.1424 18.3593 88.9396 20.6027C89.4106 21.9273 91.2002 21.6838 91.8619 20.6465C91.9422 20.5215 92.1896 19.9599 92.1896 19.8479V16.9666Z" fill="#48684B"/>
<path d="M131.006 15.4004C130.948 13.7341 131.615 11.3224 129.252 11.2737C126.889 11.225 128.253 14.2977 126.488 14.668C124.392 15.1065 123.869 13.0796 125.02 11.6082C126.747 9.3995 132.137 9.07307 134.007 11.1551C135.778 13.1251 134.558 17.8463 134.97 20.3928C135.014 20.6689 135.207 21.0506 135.427 21.2195C135.974 21.6369 136.875 21.2032 136.661 22.2621C136.576 22.6828 135.957 23.1619 135.603 23.3616C134.437 24.0194 132.434 24.0194 131.572 22.8501C131.457 22.6941 131.209 22.0445 131.063 22.0786C129.45 24.2159 124.988 24.6999 123.993 21.7506C122.919 18.5674 125.689 16.8507 128.192 16.1069C128.604 15.9851 130.917 15.5612 131.005 15.4004H131.006ZM131.023 16.9612C129.843 17.1236 127.83 17.9778 127.653 19.3632C127.459 20.8687 128.257 21.8577 129.75 21.3689C131.577 20.7712 130.935 18.4683 131.023 16.9612Z" fill="#48684B"/>
<path d="M102.739 29.148C102.443 28.8516 102.513 28.2177 102.837 27.9685C103.161 27.7192 104.669 27.3848 105.128 27.2951C105.744 27.1751 107.456 26.7145 107.696 27.4988L107.731 42.0554C107.777 42.5053 107.879 42.8518 108.265 43.1178C108.455 43.2485 108.726 43.2789 108.907 43.4629C109.158 43.7167 109.123 44.463 108.798 44.5679L102.636 44.5648C102.425 44.4615 102.435 43.7349 102.523 43.5404C102.676 43.2029 103.745 42.9902 103.817 42.4764L103.853 30.3533C103.753 29.4185 103.159 29.569 102.738 29.1495L102.739 29.148Z" fill="#48684B"/>
<path d="M94.5967 44.507C94.5282 44.4386 94.513 44.282 94.5024 44.1848C94.3533 42.8168 95.721 43.4567 95.8701 42.1313C95.7028 38.4637 96.0923 34.6015 95.8732 30.9551C95.858 30.6922 95.8047 30.1298 95.6997 29.9124C95.3726 29.2269 94.2072 29.3607 94.5161 28.315C94.621 27.9593 95.3772 27.7723 95.6997 27.6751C96.3403 27.482 98.6939 26.9379 99.2355 27.0625C99.4348 27.1081 99.6798 27.3194 99.6737 27.5367L99.6768 42.2012C99.7407 42.4642 99.8456 42.7834 100.046 42.9718C100.357 43.2622 101.067 43.3138 101.119 43.8017C101.163 44.2152 100.991 44.5708 100.545 44.6043C98.7472 44.4872 96.7663 44.7547 94.9907 44.6043C94.8721 44.5936 94.6773 44.5906 94.5936 44.507H94.5967Z" fill="#48684B"/>
<path d="M93.0418 44.4325C92.914 44.5116 92.7999 44.5845 92.6447 44.6043C90.927 44.8171 88.7757 44.434 87.0109 44.6043C86.4647 44.7016 86.4053 43.7805 86.559 43.4598C86.734 43.095 87.7837 43.2834 87.8933 42.1328C88.0941 39.9973 87.7427 37.5426 87.8842 35.3736C87.6529 34.2671 86.2562 34.7732 86.524 33.3916C86.5544 33.235 86.6122 33.2183 86.7248 33.1362C87.1311 32.8383 89.9944 32.1969 90.5999 32.1468C90.9149 32.1209 91.5569 32.0449 91.7121 32.3839L91.7729 42.4308C91.8627 43.0129 92.3967 43.1011 92.7817 43.399C93.2716 43.7789 93.1103 43.8519 93.0433 44.434L93.0418 44.4325Z" fill="#48684B"/>
<path d="M89.4696 27.2192C92.7802 26.8149 92.762 31.6893 89.1485 31.1452C87.1281 30.8397 86.9288 27.5292 89.4696 27.2192Z" fill="#48684B"/>
</svg>
