<svg width="86" height="17" viewBox="0 0 86 17" fill="none" xmlns="http://www.w3.org/2000/svg">
<path fill-rule="evenodd" clip-rule="evenodd" d="M33.7423 12.8317C30.5823 15.1638 26.001 16.4039 22.0558 16.4039C16.5269 16.4039 11.5479 14.3601 7.77998 10.9579C7.48447 10.6905 7.748 10.3257 8.10358 10.5326C12.1685 12.8981 17.1959 14.3228 22.3876 14.3228C25.8901 14.3228 29.7404 13.5957 33.283 12.093C33.8174 11.8667 34.2655 12.4451 33.7423 12.8317Z" fill="#333E47"/>
<path fill-rule="evenodd" clip-rule="evenodd" d="M35.0567 11.3301C34.6522 10.8127 32.385 11.0849 31.3663 11.207C31.0577 11.2443 31.0097 10.9745 31.2878 10.7793C33.0967 9.50859 36.0609 9.87531 36.4054 10.3011C36.7522 10.7299 36.3138 13.7019 34.6193 15.1198C34.3581 15.3378 34.1101 15.2215 34.2259 14.9338C34.6076 13.9809 35.4612 11.8484 35.0567 11.3301Z" fill="#333E47"/>
<path fill-rule="evenodd" clip-rule="evenodd" d="M31.4384 1.80412V0.569781C31.4394 0.38182 31.5808 0.256836 31.7514 0.25732L37.2846 0.256836C37.4614 0.256836 37.6038 0.385211 37.6038 0.568328V1.62682C37.6019 1.80461 37.4522 2.03617 37.1872 2.40385L34.3208 6.49636C35.3846 6.47165 36.51 6.63103 37.4769 7.17408C37.6949 7.29664 37.7535 7.47831 37.7705 7.65609V8.97327C37.7705 9.15493 37.5718 9.3647 37.3626 9.2557C35.6598 8.36337 33.3999 8.266 31.5164 9.26635C31.3241 9.36905 31.123 9.16172 31.123 8.98005V7.72779C31.123 7.52772 31.1269 7.18474 31.3289 6.87954L34.6492 2.11561L31.7581 2.11513C31.5813 2.11513 31.4394 1.98917 31.4384 1.80412Z" fill="#333E47"/>
<path fill-rule="evenodd" clip-rule="evenodd" d="M11.2552 9.51507H9.57183C9.41148 9.5049 9.28359 9.38476 9.27051 9.23071L9.27196 0.590811C9.27196 0.418352 9.41729 0.280288 9.59702 0.280288L11.1646 0.279804C11.3284 0.288039 11.4602 0.412055 11.4703 0.56998V1.69774H11.5023C11.9107 0.606797 12.6804 0.0976562 13.7176 0.0976562C14.7703 0.0976562 15.4306 0.606797 15.9019 1.69774C16.3103 0.606797 17.2375 0.0976562 18.2272 0.0976562C18.9345 0.0976562 19.7043 0.388802 20.1756 1.04327C20.7099 1.77089 20.6005 2.82502 20.6005 3.75223L20.5985 9.20455C20.5985 9.37652 20.4537 9.51507 20.274 9.51507H18.593C18.4234 9.50441 18.2907 9.37071 18.2907 9.20503L18.2902 4.6247C18.2902 4.26137 18.3217 3.35257 18.2427 3.00717C18.1173 2.42488 17.7404 2.26114 17.2535 2.26114C16.8446 2.26114 16.4203 2.53388 16.2473 2.96987C16.0744 3.40683 16.0904 4.13348 16.0904 4.6247V9.20455C16.0904 9.37652 15.945 9.51507 15.7658 9.51507H14.0843C13.9153 9.50441 13.782 9.37071 13.782 9.20503L13.7801 4.6247C13.7801 3.66116 13.9376 2.2437 12.7434 2.2437C11.5333 2.2437 11.5808 3.62483 11.5808 4.6247L11.5798 9.20455C11.5798 9.37652 11.4345 9.51507 11.2552 9.51507Z" fill="#333E47"/>
<path fill-rule="evenodd" clip-rule="evenodd" d="M42.3824 1.86148C41.1413 1.86148 41.0628 3.55168 41.0628 4.60629C41.0628 5.66091 41.0473 7.91547 42.3674 7.91547C43.6715 7.91547 43.7345 6.09738 43.7345 4.98851C43.7345 4.26137 43.7025 3.38842 43.4826 2.69762C43.2941 2.0974 42.9167 1.86148 42.3824 1.86148ZM42.3674 0.0976562C44.8656 0.0976562 46.2167 2.2437 46.2167 4.97059C46.2167 7.60591 44.7242 9.69722 42.3674 9.69722C39.9157 9.69722 38.5801 7.55165 38.5801 4.87951C38.5801 2.18848 39.9312 0.0976562 42.3674 0.0976562Z" fill="#333E47"/>
<path fill-rule="evenodd" clip-rule="evenodd" d="M49.4569 9.51507H47.7793C47.6112 9.50441 47.4775 9.37071 47.4775 9.20503L47.4746 0.562229C47.4891 0.403819 47.6287 0.280288 47.7982 0.280288L49.3595 0.279804C49.5068 0.287555 49.6279 0.387348 49.6589 0.521537V1.84308H49.6904C50.1623 0.661054 50.8216 0.0976562 51.9842 0.0976562C52.7385 0.0976562 53.4772 0.370393 53.9486 1.11594C54.3885 1.80674 54.3885 2.96987 54.3885 3.80649V9.2433C54.3701 9.39638 54.2325 9.51507 54.0658 9.51507H52.3785C52.2226 9.50538 52.0971 9.39057 52.0787 9.2433V4.55252C52.0787 3.6069 52.1891 2.22481 51.026 2.22481C50.6176 2.22481 50.2402 2.49755 50.0518 2.91561C49.8159 3.44316 49.7844 3.97023 49.7844 4.55252V9.20455C49.7815 9.37652 49.6362 9.51507 49.4569 9.51507Z" fill="#333E47"/>
<path fill-rule="evenodd" clip-rule="evenodd" d="M28.7245 9.49358C28.6136 9.59337 28.4532 9.60016 28.3273 9.53282C27.7682 9.06825 27.6679 8.85364 27.3623 8.41087C26.4384 9.35213 25.784 9.63455 24.5869 9.63455C23.17 9.63455 22.0674 8.75966 22.0674 7.01085C22.0674 5.64426 22.8081 4.71512 23.8627 4.25975C24.7759 3.85864 26.0514 3.78597 27.028 3.67649V3.45801C27.028 3.05641 27.0595 2.58361 26.8231 2.23723C26.6182 1.9272 26.2248 1.79979 25.8784 1.79979C25.2361 1.79979 24.6659 2.12872 24.5254 2.81032C24.4959 2.96195 24.3854 3.11261 24.2333 3.12036L22.6012 2.94354C22.4637 2.91205 22.3106 2.8016 22.3498 2.59136C22.7204 0.639569 24.4634 0.0311192 26.0475 0.0146484H26.1725C26.9834 0.0248216 28.0192 0.247177 28.6499 0.852236C29.4691 1.61764 29.3896 2.63786 29.3896 3.74964V6.37188C29.3896 7.16103 29.7176 7.50691 30.0252 7.93176C30.1332 8.08533 30.157 8.26699 30.0199 8.37938C29.6759 8.66762 29.065 9.19808 28.7293 9.49746L28.7245 9.49358ZM27.028 5.38945C27.028 6.04538 27.0435 6.59182 26.7131 7.17508C26.4452 7.64837 26.0199 7.94 25.5476 7.94C24.9023 7.94 24.5244 7.4483 24.5244 6.71922C24.5244 5.2853 25.8101 5.02467 27.028 5.02467V5.38945Z" fill="#333E47"/>
<path fill-rule="evenodd" clip-rule="evenodd" d="M6.65759 9.49358C6.54617 9.59337 6.38534 9.60016 6.25987 9.53282C5.70034 9.06825 5.60007 8.85364 5.29487 8.41087C4.37057 9.35213 3.71658 9.63455 2.51955 9.63455C1.10257 9.63455 0 8.75966 0 7.01085C0 5.64426 0.739732 4.71512 1.79532 4.25975C2.70848 3.85864 3.98399 3.78597 4.96013 3.67649V3.45801C4.96013 3.05641 4.9921 2.58361 4.7557 2.23723C4.55078 1.9272 4.15694 1.79979 3.81105 1.79979C3.16869 1.79979 2.59754 2.12872 2.45802 2.81032C2.42896 2.96195 2.31802 3.11261 2.16542 3.12036L0.533847 2.94354C0.395783 2.91205 0.242702 2.8016 0.282426 2.59136C0.652049 0.639569 2.39553 0.0311192 3.98012 0.0146484H4.1051C4.91604 0.0248216 5.95177 0.247177 6.5825 0.852236C7.4012 1.61764 7.32223 2.63786 7.32223 3.74964V6.37188C7.32223 7.16103 7.6502 7.50691 7.95781 7.93176C8.06487 8.08533 8.08958 8.26699 7.95248 8.37938C7.60853 8.66762 6.99718 9.19808 6.66146 9.49746L6.65759 9.49358ZM4.96013 5.38945C4.96013 6.04538 4.97611 6.59182 4.64525 7.17508C4.37784 7.64837 3.9525 7.94 3.4797 7.94C2.83443 7.94 2.45657 7.4483 2.45657 6.71922C2.45657 5.2853 3.74274 5.02467 4.96013 5.02467V5.38945Z" fill="#333E47"/>
<path fill-rule="evenodd" clip-rule="evenodd" d="M77.3997 12.6139C77.3997 12.395 77.3997 12.1983 77.3997 11.9793C77.3997 11.7986 77.4884 11.6741 77.6768 11.6853C78.0285 11.7352 78.526 11.7851 78.8792 11.7124C79.3404 11.6165 79.6712 11.2895 79.867 10.8414C80.1426 10.2106 80.3252 9.70198 80.4405 9.36821L76.9386 0.69295C76.8794 0.545682 76.862 0.272461 77.1561 0.272461H78.3802C78.6137 0.272461 78.7087 0.420698 78.761 0.566028L81.2999 7.61261L83.7235 0.566028C83.7729 0.421667 83.8722 0.272461 84.1038 0.272461H85.2582C85.5503 0.272461 85.5339 0.545198 85.4757 0.69295L82.0018 9.639C81.5523 10.8297 80.9535 12.7263 79.6049 13.0557C78.9286 13.2325 78.0755 13.1686 77.5746 12.9588C77.4482 12.8954 77.3997 12.7258 77.3997 12.6139Z" fill="#333E47"/>
<path fill-rule="evenodd" clip-rule="evenodd" d="M75.766 8.98627C75.766 9.14758 75.6337 9.27983 75.4715 9.27983H74.6082C74.4217 9.27983 74.2943 9.14516 74.2705 8.98627L74.1838 8.39865C73.7871 8.73436 73.3002 9.02938 72.7722 9.23478C71.7568 9.62911 70.5864 9.69451 69.5943 9.08509C68.8769 8.64474 68.4961 7.7839 68.4961 6.89593C68.4961 6.209 68.7078 5.52789 69.1772 5.03328C69.8036 4.35749 70.7114 4.02565 71.8077 4.02565C72.4699 4.02565 73.4175 4.10365 74.1068 4.32891V3.1464C74.1068 1.94404 73.6006 1.42375 72.266 1.42375C71.2457 1.42375 70.4653 1.5778 69.3792 1.91546C69.2053 1.92127 69.1036 1.78902 69.1036 1.6277V0.953368C69.1036 0.791566 69.2416 0.635094 69.3913 0.587619C70.1669 0.249484 71.2656 0.0387548 72.4336 0C73.9561 0 75.766 0.343464 75.766 2.68522V8.98627ZM74.1068 7.25974V5.47557C73.5274 5.31716 72.5687 5.25127 72.1977 5.25127C71.6115 5.25127 70.9696 5.38982 70.6344 5.75073C70.3839 6.01523 70.2706 6.39502 70.2706 6.76223C70.2706 7.23697 70.4348 7.71317 70.8185 7.94861C71.2641 8.25138 71.9554 8.21456 72.6051 8.02999C73.2295 7.85269 73.8157 7.53926 74.1068 7.25974Z" fill="#333E47"/>
<path fill-rule="evenodd" clip-rule="evenodd" d="M63.0377 1.44995C64.9531 1.44995 65.4749 2.95606 65.4749 4.68065C65.4855 5.84329 65.2719 6.87998 64.6697 7.47342C64.2192 7.91764 63.7159 8.03875 62.9582 8.03875C62.2839 8.03875 61.3969 7.68705 60.7342 7.19729V2.26622C61.424 1.73625 62.3042 1.44995 63.0377 1.44995ZM60.4406 12.9233H59.2843C59.1225 12.9233 58.9902 12.7911 58.9902 12.6297C58.9902 8.61378 58.9902 4.59733 58.9902 0.58136C58.9902 0.420043 59.1225 0.287793 59.2843 0.287793H60.1693C60.3554 0.287793 60.4828 0.422466 60.5065 0.58136L60.5995 1.21258C61.4284 0.476722 62.4956 0.00488281 63.5124 0.00488281C66.3604 0.00488281 67.2968 2.35149 67.2968 4.79158C67.2968 7.4022 65.8644 9.49981 63.4417 9.49981C62.4215 9.49981 61.4676 9.1234 60.7342 8.46941V12.6297C60.7342 12.7911 60.6019 12.9233 60.4406 12.9233Z" fill="#333E47"/>
</svg>
