<svg width="52" height="20" viewBox="0 0 52 20" fill="none" xmlns="http://www.w3.org/2000/svg">
<g clip-path="url(#clip0_1974_581)">
<path d="M24.4518 1.12006C27.3609 1.12006 29.4186 3.10308 29.4186 5.99595C29.4186 8.88883 27.3373 10.8952 24.3808 10.8952H20.9041V15.9577H18.5626V1.12006H24.4518ZM20.9041 8.95882H23.8368C25.8472 8.95882 27.0298 7.88565 27.0298 6.01928C27.0298 4.15291 25.8709 3.05642 23.8368 3.05642H20.9041V8.95882Z" fill="white"/>
<path d="M29.8667 12.7616C29.8667 10.8019 31.404 9.68208 34.1949 9.49545L37.246 9.33214V8.46894C37.246 7.18581 36.3709 6.48592 34.8808 6.48592C33.6509 6.48592 32.7522 7.11582 32.563 8.07234H30.458C30.5289 6.08932 32.4211 4.64288 34.9518 4.64288C37.719 4.64288 39.4929 6.08932 39.4929 8.28231V15.9344H37.3406V14.0681H37.2933C36.6783 15.2812 35.2592 16.0511 33.7219 16.0511C31.4277 16.0744 29.8667 14.7446 29.8667 12.7616ZM37.246 11.7584V10.8952L34.5024 11.0819C32.965 11.1752 32.1609 11.7351 32.1609 12.7383C32.1609 13.6948 33.0123 14.3014 34.3132 14.3014C35.9688 14.278 37.246 13.2282 37.246 11.7584Z" fill="white"/>
<path d="M41.9531 19.947V18.1273C42.1187 18.174 42.4735 18.174 42.6627 18.174C43.727 18.174 44.3419 17.7307 44.7204 16.5409L44.8859 15.9577L40.7706 4.75946H43.2067L46.1158 13.8813H46.1631L49.0723 4.75946H51.4374L47.2038 16.4476C46.2341 19.1305 45.1698 19.9937 42.8519 19.9937C42.6863 20.017 42.1424 19.9704 41.9531 19.947Z" fill="white"/>
<path fill-rule="evenodd" clip-rule="evenodd" d="M7.98913 1.42305C9.0771 -6.10352e-05 10.5908 -6.10352e-05 10.5908 -6.10352e-05C10.5908 -6.10352e-05 10.8037 1.32973 9.73934 2.61286C8.58042 3.96598 7.27959 3.73268 7.27959 3.73268C7.27959 3.73268 7.01942 2.68285 7.98913 1.42305ZM4.53601 3.96598C2.62024 3.96598 0.562561 5.66904 0.562561 8.88853C0.562561 12.178 2.97501 16.284 4.91444 16.284C5.57668 16.284 6.61735 15.6075 7.65801 15.6075C8.67503 15.6075 9.43187 16.2374 10.3779 16.2374C12.4829 16.2374 14.0439 11.9214 14.0439 11.9214C14.0439 11.9214 11.8207 11.0815 11.8207 8.60857C11.8207 6.41559 13.6182 5.52906 13.6182 5.52906C13.6182 5.52906 12.6958 3.89599 10.3779 3.89599C9.0298 3.89599 7.98913 4.64254 7.44515 4.64254C6.75925 4.66587 5.78954 3.96598 4.53601 3.96598Z" fill="white"/>
</g>
<defs>
<clipPath id="clip0_1974_581">
<rect width="50.8749" height="20.0001" fill="white" transform="translate(0.562561 -6.10352e-05)"/>
</clipPath>
</defs>
</svg>
