<svg width="80" height="20" viewBox="0 0 80 20" fill="none" xmlns="http://www.w3.org/2000/svg">
<g clip-path="url(#clip0_1974_310)">
<path d="M30.1427 4.47275C31.5905 4.47281 32.6811 4.87319 33.296 5.62997C33.8558 6.31919 34.0413 7.30331 33.8477 8.55576C33.4182 11.4188 31.7728 12.8634 28.9229 12.8634H27.5538C27.2584 12.8634 27.0056 13.0888 26.9601 13.3956L26.4884 16.5304C26.4422 16.8371 26.1906 17.0625 25.8946 17.0626H23.8292C23.6073 17.0626 23.4373 16.8561 23.4718 16.627L25.2218 5.004C25.268 4.69808 25.5197 4.47297 25.8155 4.47275H30.1427ZM28.2306 6.98837C28.0536 6.98859 27.9023 7.12331 27.8751 7.30673L27.4171 10.3438H28.0694C29.2163 10.3438 30.4031 10.344 30.6397 8.71786C30.7264 8.14665 30.6568 7.73254 30.4298 7.45419C30.049 6.98766 29.3116 6.98837 28.5304 6.98837H28.2306Z" fill="#253B80"/>
<path d="M37.9626 8.46133C38.9608 8.46133 39.9613 8.68954 40.4098 9.37149L40.5544 9.59122L40.6461 8.9838C40.6735 8.80041 40.8262 8.66544 41.0026 8.66544H43.0749C43.296 8.66574 43.4648 8.87348 43.4294 9.10196L42.3092 16.5297C42.2624 16.8365 42.0122 17.0619 41.7155 17.0619H39.8493C39.6285 17.0619 39.459 16.855 39.4938 16.6244L39.5866 16.0219C39.5866 16.0219 38.5631 17.2641 36.7184 17.2641C35.6438 17.264 34.7403 16.9398 34.109 16.1606C33.4208 15.3129 33.1395 14.0967 33.3376 12.8256C33.7185 10.2778 35.6735 8.46152 37.9626 8.46133ZM38.4547 10.7631C37.2749 10.7631 36.3201 11.6226 36.1335 12.852C36.0361 13.4548 36.1518 13.996 36.4577 14.3764C36.7664 14.7594 37.2477 14.9623 37.8493 14.9623C39.0474 14.9623 39.9873 14.129 40.1872 12.8891C40.2775 12.2889 40.1521 11.7441 39.8366 11.3539C39.5216 10.9676 39.043 10.7631 38.4547 10.7631Z" fill="#253B80"/>
<path d="M54.1084 8.66522H52.0265C51.8278 8.66522 51.6412 8.76861 51.5286 8.94158L48.6572 13.3726L47.4401 9.11455C47.3635 8.84814 47.1288 8.66522 46.8631 8.66522H44.8173C44.5687 8.66522 44.396 8.91971 44.4751 9.16492L46.7683 16.215L44.6123 19.4034C44.4428 19.6546 44.6136 19.9999 44.9065 19.9999H46.9859C47.1832 19.9999 47.368 19.8992 47.4799 19.7295L54.4044 9.25837C54.5702 9.00785 54.4 8.66522 54.1084 8.66522Z" fill="#253B80"/>
<path d="M61.0019 4.47275C62.4498 4.47281 63.54 4.87319 64.1543 5.62997C64.714 6.31919 64.9002 7.30337 64.706 8.55576C64.2759 11.4188 62.6317 12.8634 59.7812 12.8634H58.4121C58.1168 12.8635 57.8649 13.089 57.8193 13.3956L57.3222 16.6905C57.2898 16.9051 57.1133 17.0626 56.9072 17.0626H54.6865C54.4661 17.0623 54.2966 16.856 54.331 16.627L56.081 5.004C56.1273 4.69793 56.3794 4.47275 56.6748 4.47275H61.0019ZM59.0927 6.98837C58.9152 6.98859 58.7645 7.12331 58.7373 7.30673L58.2793 10.3438H58.9316C60.079 10.3438 61.265 10.3439 61.5009 8.71786C61.5876 8.1466 61.5191 7.73254 61.292 7.45419C60.9112 6.98766 60.1731 6.98837 59.3925 6.98837H59.0927Z" fill="#179BD7"/>
<path d="M68.8222 8.46127C69.8205 8.46127 70.82 8.68948 71.2685 9.37143L71.414 9.59116L71.5058 8.98373C71.5325 8.80044 71.6837 8.6655 71.8613 8.66537H73.9316C74.1536 8.66537 74.3232 8.87326 74.289 9.1019L73.1689 16.5296C73.1227 16.8363 72.8714 17.0617 72.5761 17.0619H70.7099C70.488 17.0617 70.3187 16.8549 70.3535 16.6244L70.4453 16.0218C70.4268 16.0441 69.4059 17.264 67.5781 17.264C66.5034 17.264 65.6013 16.9397 64.9687 16.1605C64.2804 15.3129 63.9998 14.0966 64.1972 12.8255C64.5782 10.2777 66.533 8.46141 68.8222 8.46127ZM69.3144 10.763C68.1347 10.7631 67.181 11.6226 66.9931 12.8519C66.897 13.4549 67.0122 13.9959 67.3183 14.3763C67.627 14.7593 68.1087 14.9622 68.7089 14.9622C69.9071 14.9622 70.8482 14.129 71.0468 12.889C71.1384 12.2888 71.0131 11.7441 70.6962 11.3539C70.3812 10.9675 69.9027 10.763 69.3144 10.763Z" fill="#179BD7"/>
<path d="M76.3762 4.79154L74.6005 16.6266C74.5657 16.8559 74.7352 17.0627 74.956 17.0627H76.7412C77.0379 17.0627 77.2897 16.8373 77.3352 16.5305L79.0863 4.90885C79.1211 4.67954 78.9516 4.47211 78.7308 4.47211H76.7317C76.5552 4.47277 76.4034 4.60797 76.3762 4.79154Z" fill="#179BD7"/>
<path d="M5.50632 19.3214L5.83717 17.1198L5.10018 17.1019H1.58099L4.02665 0.856414C4.03424 0.807372 4.05891 0.761644 4.09497 0.72917C4.13103 0.696696 4.17721 0.678802 4.22529 0.678802H10.1591C12.1291 0.678802 13.4885 1.10825 14.1983 1.95588C14.5311 2.35352 14.743 2.76905 14.8455 3.22634C14.953 3.70615 14.9549 4.27942 14.8499 4.9786L14.8423 5.02963V5.47763L15.1751 5.67513C15.4553 5.83087 15.678 6.00914 15.8488 6.21326C16.1335 6.55324 16.3176 6.98534 16.3954 7.49764C16.4757 8.02451 16.4491 8.65145 16.3176 9.36123C16.1657 10.1777 15.9203 10.8888 15.5888 11.4707C15.2839 12.0069 14.8955 12.4515 14.4343 12.7962C13.994 13.1236 13.4708 13.3721 12.8793 13.5311C12.3062 13.6875 11.6527 13.7664 10.936 13.7664H10.4742C10.144 13.7664 9.82322 13.891 9.57144 14.1143C9.31903 14.3423 9.15203 14.6538 9.10078 14.9944L9.06599 15.1926L8.48146 19.0729L8.45489 19.2154C8.44794 19.2604 8.43592 19.283 8.4182 19.2982C8.40239 19.3121 8.37961 19.3214 8.35747 19.3214H5.50632Z" fill="#253B80"/>
<path d="M15.4894 5.08124C15.4717 5.19987 15.4515 5.32115 15.4287 5.44574C14.6461 9.65474 11.969 11.1088 8.54972 11.1088H6.80879C6.39064 11.1088 6.03828 11.4269 5.97312 11.859L5.08178 17.7811L4.82937 19.4598C4.78698 19.7435 4.99574 19.9993 5.26903 19.9993H8.35678C8.72242 19.9993 9.03303 19.721 9.0906 19.3432L9.12097 19.1788L9.70233 15.3138L9.73966 15.1017C9.79659 14.7226 10.1078 14.4443 10.4735 14.4443H10.9353C13.9269 14.4443 16.2688 13.1719 16.9533 9.48972C17.2392 7.95152 17.0912 6.66715 16.3346 5.76385C16.1056 5.49147 15.8215 5.26548 15.4894 5.08124Z" fill="#179BD7"/>
<path d="M14.6693 4.73892C14.5498 4.70247 14.4264 4.66934 14.2999 4.63951C14.1727 4.61035 14.0424 4.58451 13.9083 4.56197C13.4389 4.48245 12.9246 4.44467 12.3736 4.44467H7.72267C7.60817 4.44467 7.49936 4.47184 7.40194 4.52089C7.18749 4.62891 7.02807 4.84165 6.98948 5.1021L6.00009 11.6671L5.97162 11.8586C6.03678 11.4265 6.38914 11.1084 6.80729 11.1084H8.54822C11.9675 11.1084 14.6447 9.65373 15.4272 5.44539C15.4506 5.3208 15.4702 5.19952 15.4879 5.08089C15.2899 4.97088 15.0755 4.87677 14.8446 4.79658C14.7876 4.7767 14.7288 4.75748 14.6693 4.73892Z" fill="#222D65"/>
<path d="M6.99099 5.10245C7.02958 4.842 7.18899 4.62926 7.40345 4.5219C7.5015 4.47286 7.60968 4.44569 7.72418 4.44569H12.3751C12.9261 4.44569 13.4404 4.48346 13.9098 4.56299C14.0439 4.58552 14.1742 4.61137 14.3014 4.64053C14.4279 4.67035 14.5513 4.70349 14.6708 4.73994C14.7303 4.7585 14.7891 4.77772 14.8467 4.79694C15.0776 4.87713 15.292 4.9719 15.4901 5.08125C15.7229 3.52582 15.4882 2.46677 14.6854 1.5078C13.8004 0.452074 12.203 9.15527e-05 10.1591 9.15527e-05H4.22523C3.80771 9.15527e-05 3.45156 0.318202 3.38703 0.750965L0.915438 17.1635C0.866727 17.4882 1.10585 17.7812 1.41836 17.7812H5.08178L6.00159 11.6675L6.99099 5.10245Z" fill="#253B80"/>
</g>
<defs>
<clipPath id="clip0_1974_310">
<rect width="78.1817" height="19.9998" fill="white" transform="translate(0.909119 9.15527e-05)"/>
</clipPath>
</defs>
</svg>
