<svg width="15" height="16" viewBox="0 0 15 16" fill="none" xmlns="http://www.w3.org/2000/svg">
<ellipse cx="7.5" cy="7.31355" rx="4.375" ry="4.0625" fill="#4C9780"/>
<path d="M7.5 2.4049C4.93846 2.4049 2.86154 4.48182 2.86154 7.04336C2.86154 7.7049 3 8.32797 3.24616 8.8972C3.25385 8.92028 3.26923 8.94336 3.27693 8.96644C3.3 9.02028 3.33077 9.08182 3.36154 9.13567C3.37693 9.15874 3.38462 9.18182 3.4 9.21259C3.43077 9.27413 3.46923 9.34336 3.5077 9.4049C3.51539 9.41259 3.51539 9.42028 3.52308 9.43567C3.71539 9.75874 3.95385 10.0587 4.21539 10.3203L6.96154 13.8434C7.23077 14.1895 7.75385 14.1895 8.02308 13.8434L10.7692 10.328C11.0385 10.0587 11.2692 9.75874 11.4692 9.43567C11.8923 8.73567 12.1308 7.92028 12.1308 7.05105C12.1385 4.48182 10.0615 2.4049 7.5 2.4049ZM7.5 10.9357C5.37693 10.9357 3.65385 9.21259 3.65385 7.08951C3.65385 4.96644 5.37693 3.24336 7.5 3.24336C9.62308 3.24336 11.3462 4.96644 11.3462 7.08951C11.3462 9.21259 9.62308 10.9357 7.5 10.9357Z" fill="#4C9780"/>
<path d="M5.4923 7.07413C5.41537 7.13567 5.36922 7.18183 5.31537 7.22798C5.17691 7.34337 5.03845 7.3126 4.8923 7.14337C4.7846 7.02029 4.7846 6.88183 4.90768 6.77413C5.29999 6.4126 5.6923 6.05875 6.0846 5.69721C6.43845 5.37413 6.78461 5.05106 7.13845 4.72798C7.1923 4.68183 7.24614 4.62798 7.29999 4.58183C7.43845 4.45875 7.5923 4.45875 7.73845 4.58183C7.9923 4.8049 8.24614 5.02798 8.49999 5.25106C9.02307 5.7049 9.53845 6.15875 10.0615 6.62029C10.1615 6.7049 10.2461 6.79721 10.1846 6.93567C10.1308 7.07413 10.0308 7.18183 9.87691 7.2126C9.81537 7.22798 9.74614 7.16644 9.66922 7.13567C9.66922 7.15875 9.66153 7.19721 9.66153 7.23567V9.38183C9.66153 9.59721 9.56922 9.69721 9.34614 9.69721C9.04614 9.69721 8.74614 9.69721 8.44614 9.69721C8.24614 9.69721 8.15384 9.6049 8.15384 9.39721C8.15384 8.9049 8.15384 8.4049 8.15384 7.9126C8.15384 7.87413 8.15384 7.82798 8.15384 7.78183C7.75384 7.78183 7.36922 7.78183 6.96153 7.78183C6.96153 7.82029 6.95384 7.85875 6.95384 7.89721V9.35875C6.95384 9.58952 6.86153 9.68952 6.62307 9.68952C6.33845 9.68952 6.06153 9.68952 5.77691 9.68952C5.5923 9.68952 5.4923 9.58952 5.4923 9.4049C5.4923 8.67413 5.4923 7.95106 5.4923 7.22029C5.4923 7.18183 5.4923 7.14337 5.4923 7.07413Z" fill="white"/>
</svg>
