<svg width="12" height="13" viewBox="0 0 12 13" fill="none" xmlns="http://www.w3.org/2000/svg">
<path d="M6.10843 7.40106C5.75003 7.40106 5.39968 7.29478 5.10168 7.09567C4.80368 6.89655 4.57142 6.61354 4.43426 6.28242C4.29711 5.9513 4.26123 5.58695 4.33115 5.23544C4.40107 4.88392 4.57365 4.56104 4.82708 4.30761C5.08051 4.05418 5.40339 3.8816 5.75491 3.81168C6.10642 3.74175 6.47077 3.77764 6.80189 3.91479C7.13301 4.05195 7.41602 4.28421 7.61514 4.58221C7.81425 4.88021 7.92053 5.23056 7.92053 5.58896C7.91996 6.06938 7.72885 6.52996 7.38914 6.86967C7.04943 7.20938 6.58885 7.40049 6.10843 7.40106ZM6.10843 4.5017C5.89339 4.5017 5.68318 4.56546 5.50438 4.68493C5.32558 4.8044 5.18622 4.97421 5.10393 5.17288C5.02164 5.37155 5.00011 5.59017 5.04206 5.80107C5.08401 6.01198 5.18756 6.20571 5.33962 6.35777C5.49168 6.50983 5.68541 6.61338 5.89632 6.65533C6.10722 6.69728 6.32584 6.67575 6.52451 6.59346C6.72318 6.51117 6.89298 6.37181 7.01245 6.19301C7.13192 6.01421 7.19569 5.804 7.19569 5.58896C7.1954 5.30069 7.08076 5.02431 6.87692 4.82047C6.67308 4.61663 6.3967 4.50199 6.10843 4.5017Z" fill="#696A6A"/>
<path d="M6.10858 11.7502L3.0512 8.14447C3.00872 8.09033 2.96667 8.03584 2.92508 7.98102C2.40282 7.29307 2.12069 6.45277 2.12195 5.58904C2.12195 4.53172 2.54197 3.51771 3.28961 2.77007C4.03725 2.02244 5.05126 1.60242 6.10858 1.60242C7.1659 1.60242 8.17991 2.02244 8.92755 2.77007C9.67519 3.51771 10.0952 4.53172 10.0952 5.58904C10.0965 6.45238 9.81446 7.29229 9.29244 7.97993L9.29208 7.98102C9.29208 7.98102 9.18335 8.12381 9.16704 8.14302L6.10858 11.7502ZM3.5035 7.5443C3.50422 7.5443 3.58831 7.65593 3.60751 7.67985L6.10858 10.6296L8.6129 7.67586C8.62885 7.65593 8.71366 7.54358 8.71402 7.54321C9.14064 6.98114 9.3712 6.29469 9.37036 5.58904C9.37036 4.72396 9.02671 3.89432 8.41501 3.28261C7.8033 2.67091 6.97366 2.32726 6.10858 2.32726C5.2435 2.32726 4.41385 2.67091 3.80215 3.28261C3.19044 3.89432 2.84679 4.72396 2.84679 5.58904C2.84603 6.29513 3.07649 6.98197 3.5035 7.5443Z" fill="#696A6A"/>
</svg>
