<svg width="17" height="15" viewBox="0 0 17 15" fill="none" xmlns="http://www.w3.org/2000/svg">
<path fill-rule="evenodd" clip-rule="evenodd" d="M7.75009 14.7214C3.90551 14.7214 0.780212 11.596 0.780212 7.75147C0.780212 3.90689 3.90551 0.781555 7.75009 0.781555C9.51308 0.781555 11.1675 1.42187 12.4564 2.60341C12.0277 2.85691 11.614 3.13772 11.216 3.44167C10.2394 2.65377 9.02501 2.21997 7.75009 2.21997C4.7032 2.21997 2.21863 4.70458 2.21863 7.75147C2.21863 10.7984 4.7032 13.283 7.75009 13.283C11.9896 13.283 14.5065 8.7513 12.6831 5.22788C12.9595 4.97088 13.2439 4.72179 13.5359 4.481C13.6221 4.4099 13.709 4.33947 13.7966 4.26974C14.4066 5.32327 14.7201 6.51779 14.7201 7.75143C14.72 11.596 11.5947 14.7214 7.75009 14.7214Z" fill="#1E492D"/>
<path fill-rule="evenodd" clip-rule="evenodd" d="M7.9332 11.3344C7.85476 11.3344 7.78937 11.2821 7.76322 11.2167C7.75016 11.1905 6.62553 8.28747 4.88631 7.18902C4.54631 6.9798 4.28483 6.75748 4.38942 6.26055C4.49401 5.77671 4.82096 5.5021 5.40939 5.37132C6.45551 5.14901 7.58011 6.77054 7.99859 7.43748C9.46316 5.30597 12.3924 1.95828 16.6554 1.56599C16.861 1.54188 16.9371 1.84672 16.7469 1.93214C16.6815 1.95828 10.5877 4.74369 8.11624 11.2298C8.07704 11.2951 8.01165 11.3344 7.9332 11.3344Z" fill="#1E492D"/>
</svg>
