<svg width="49" height="20" viewBox="0 0 49 20" fill="none" xmlns="http://www.w3.org/2000/svg">
<path fill-rule="evenodd" clip-rule="evenodd" d="M22.8547 3.1V7.90353H25.817C26.5229 7.90353 27.1064 7.66588 27.5676 7.19176C28.0417 6.71882 28.2794 6.15411 28.2794 5.50117C28.2794 4.86117 28.0417 4.30353 27.5676 3.82823C27.1064 3.34235 26.5229 3.09882 25.817 3.09882H22.8547V3.1ZM22.8547 9.59411V15.1659H21.0853V1.40941H25.7794C26.9711 1.40941 27.9829 1.80588 28.817 2.6C29.6641 3.39411 30.0876 4.36117 30.0876 5.50117C30.0876 6.66706 29.6641 7.64117 28.817 8.42117C27.997 9.20353 26.9829 9.59294 25.7782 9.59294H22.8547V9.59411ZM31.8759 12.2847C31.8759 12.7459 32.0711 13.1294 32.4629 13.4376C32.8535 13.7435 33.3123 13.8976 33.837 13.8976C34.5817 13.8976 35.2441 13.6223 35.8276 13.0729C36.4123 12.5212 36.7029 11.8741 36.7029 11.1318C36.1511 10.6965 35.3817 10.4788 34.3947 10.4788C33.677 10.4788 33.077 10.6529 32.597 10.9988C32.1159 11.3447 31.8759 11.7718 31.8759 12.2847ZM34.1653 5.44353C35.4735 5.44353 36.5053 5.79294 37.2629 6.49058C38.0182 7.18941 38.397 8.14706 38.397 9.36353V15.1659H36.7041V13.86H36.6276C35.8959 14.9353 34.9217 15.4741 33.7029 15.4741C32.6653 15.4741 31.7959 15.1659 31.097 14.5518C30.3982 13.9365 30.0488 13.1682 30.0488 12.2459C30.0488 11.2718 30.417 10.4976 31.1547 9.92117C31.8923 9.3447 32.8759 9.05647 34.1076 9.05647C35.157 9.05647 36.0241 9.24823 36.7029 9.63294V9.22823C36.7029 8.61411 36.4594 8.09176 35.9723 7.66353C35.5031 7.24124 34.8918 7.01145 34.2606 7.02C33.2723 7.02 32.4911 7.43529 31.9135 8.26941L30.3559 7.28823C31.2147 6.05882 32.4853 5.44353 34.1653 5.44353ZM48.11 5.75176L42.2041 19.3165H40.377L42.57 14.5706L38.6853 5.75176H40.6088L43.417 12.5153H43.4547L46.1864 5.75059L48.11 5.75176Z" fill="white"/>
<path fill-rule="evenodd" clip-rule="evenodd" d="M15.7039 8.39289C15.7039 7.83642 15.6568 7.29877 15.5674 6.78583H8.10388V9.83053H12.3792C12.2916 10.317 12.1063 10.7807 11.8345 11.1936C11.5628 11.6065 11.2102 11.96 10.798 12.2329V14.2094H13.3498C14.8439 12.8329 15.7039 10.7976 15.7039 8.39289Z" fill="#4285F4"/>
<path fill-rule="evenodd" clip-rule="evenodd" d="M8.10358 16.1176C10.24 16.1176 12.0377 15.4176 13.3495 14.2106L10.7977 12.2329C10.0883 12.7106 9.17416 12.9894 8.10358 12.9894C6.04005 12.9894 4.28711 11.5988 3.66122 9.72585H1.03299V11.7623C1.69232 13.0722 2.70256 14.1731 3.95104 14.9423C5.19952 15.7116 6.63714 16.1189 8.10358 16.1188" fill="#34A853"/>
<path fill-rule="evenodd" clip-rule="evenodd" d="M3.66146 9.72588C3.33131 8.74427 3.33131 7.68161 3.66146 6.7V4.66353H1.03323C0.477619 5.76373 0.188657 6.97923 0.1897 8.21176C0.1897 9.48823 0.495582 10.6941 1.03323 11.7612L3.66146 9.72471V9.72588Z" fill="#FABB05"/>
<path fill-rule="evenodd" clip-rule="evenodd" d="M8.10356 3.43643C9.27062 3.43643 10.3153 3.83643 11.1389 4.62231V4.62349L13.3977 2.36702C12.0283 1.09173 10.24 0.308197 8.10474 0.308197C6.63843 0.308001 5.20089 0.715115 3.95242 1.48414C2.70395 2.25316 1.69364 3.35386 1.03415 4.66349L3.66238 6.69996C4.28827 4.82702 6.04121 3.43643 8.10474 3.43643" fill="#E94235"/>
</svg>
